<mxfile host="app.diagrams.net" modified="2021-04-15T12:37:13.589Z" agent="5.0 (Windows NT 10.0; Win64; x64) AppleWebKit/537.36 (KHTML, like Gecko) Chrome/89.0.4389.114 Safari/537.36" etag="ns30Wn0fGH8ru9cLOlnp" version="14.5.10" type="github">
  <diagram id="C5RBs43oDa-KdzZeNtuy" name="Page-1">
    <mxGraphModel dx="1422" dy="762" grid="1" gridSize="10" guides="1" tooltips="1" connect="1" arrows="1" fold="1" page="1" pageScale="1" pageWidth="827" pageHeight="1169" math="0" shadow="0">
      <root>
        <mxCell id="WIyWlLk6GJQsqaUBKTNV-0" />
        <mxCell id="WIyWlLk6GJQsqaUBKTNV-1" parent="WIyWlLk6GJQsqaUBKTNV-0" />
        <mxCell id="HyGsmqmq2-tZ3dPpX5dJ-2" value="Yes" style="edgeStyle=orthogonalEdgeStyle;rounded=0;orthogonalLoop=1;jettySize=auto;html=1;exitX=0.5;exitY=1;exitDx=0;exitDy=0;exitPerimeter=0;entryX=0.5;entryY=0;entryDx=0;entryDy=0;" edge="1" parent="WIyWlLk6GJQsqaUBKTNV-1" source="HyGsmqmq2-tZ3dPpX5dJ-0" target="HyGsmqmq2-tZ3dPpX5dJ-1">
          <mxGeometry relative="1" as="geometry" />
        </mxCell>
        <mxCell id="HyGsmqmq2-tZ3dPpX5dJ-5" value="No" style="edgeStyle=orthogonalEdgeStyle;rounded=0;orthogonalLoop=1;jettySize=auto;html=1;exitX=1;exitY=0.5;exitDx=0;exitDy=0;exitPerimeter=0;entryX=0.5;entryY=0;entryDx=0;entryDy=0;entryPerimeter=0;" edge="1" parent="WIyWlLk6GJQsqaUBKTNV-1" source="HyGsmqmq2-tZ3dPpX5dJ-0" target="HyGsmqmq2-tZ3dPpX5dJ-3">
          <mxGeometry x="-0.8125" relative="1" as="geometry">
            <Array as="points">
              <mxPoint x="230" y="90" />
              <mxPoint x="230" y="320" />
            </Array>
            <mxPoint as="offset" />
          </mxGeometry>
        </mxCell>
        <mxCell id="HyGsmqmq2-tZ3dPpX5dJ-0" value="Was the switch touched?" style="strokeWidth=2;html=1;shape=mxgraph.flowchart.decision;whiteSpace=wrap;" vertex="1" parent="WIyWlLk6GJQsqaUBKTNV-1">
          <mxGeometry x="110" y="40" width="100" height="100" as="geometry" />
        </mxCell>
        <mxCell id="HyGsmqmq2-tZ3dPpX5dJ-4" style="edgeStyle=orthogonalEdgeStyle;rounded=0;orthogonalLoop=1;jettySize=auto;html=1;exitX=0.5;exitY=1;exitDx=0;exitDy=0;entryX=0.5;entryY=0;entryDx=0;entryDy=0;entryPerimeter=0;" edge="1" parent="WIyWlLk6GJQsqaUBKTNV-1" source="HyGsmqmq2-tZ3dPpX5dJ-1" target="HyGsmqmq2-tZ3dPpX5dJ-3">
          <mxGeometry relative="1" as="geometry" />
        </mxCell>
        <mxCell id="HyGsmqmq2-tZ3dPpX5dJ-1" value="Invert run_flag" style="rounded=1;whiteSpace=wrap;html=1;absoluteArcSize=1;arcSize=14;strokeWidth=2;" vertex="1" parent="WIyWlLk6GJQsqaUBKTNV-1">
          <mxGeometry x="110" y="180" width="100" height="100" as="geometry" />
        </mxCell>
        <mxCell id="HyGsmqmq2-tZ3dPpX5dJ-7" value="Yes" style="edgeStyle=orthogonalEdgeStyle;rounded=0;orthogonalLoop=1;jettySize=auto;html=1;exitX=0.5;exitY=1;exitDx=0;exitDy=0;exitPerimeter=0;entryX=0.5;entryY=0;entryDx=0;entryDy=0;" edge="1" parent="WIyWlLk6GJQsqaUBKTNV-1" source="HyGsmqmq2-tZ3dPpX5dJ-3" target="HyGsmqmq2-tZ3dPpX5dJ-6">
          <mxGeometry relative="1" as="geometry" />
        </mxCell>
        <mxCell id="HyGsmqmq2-tZ3dPpX5dJ-3" value="Is tof.range &amp;lt;= start_turn_distance?" style="strokeWidth=2;html=1;shape=mxgraph.flowchart.decision;whiteSpace=wrap;" vertex="1" parent="WIyWlLk6GJQsqaUBKTNV-1">
          <mxGeometry x="110" y="320" width="100" height="100" as="geometry" />
        </mxCell>
        <mxCell id="HyGsmqmq2-tZ3dPpX5dJ-50" style="edgeStyle=orthogonalEdgeStyle;rounded=0;orthogonalLoop=1;jettySize=auto;html=1;exitX=0.5;exitY=1;exitDx=0;exitDy=0;entryX=0.5;entryY=0;entryDx=0;entryDy=0;entryPerimeter=0;" edge="1" parent="WIyWlLk6GJQsqaUBKTNV-1" source="HyGsmqmq2-tZ3dPpX5dJ-6" target="HyGsmqmq2-tZ3dPpX5dJ-48">
          <mxGeometry relative="1" as="geometry" />
        </mxCell>
        <mxCell id="HyGsmqmq2-tZ3dPpX5dJ-6" value="Set turn_flag = true" style="rounded=1;whiteSpace=wrap;html=1;absoluteArcSize=1;arcSize=14;strokeWidth=2;" vertex="1" parent="WIyWlLk6GJQsqaUBKTNV-1">
          <mxGeometry x="110" y="450" width="100" height="100" as="geometry" />
        </mxCell>
        <mxCell id="HyGsmqmq2-tZ3dPpX5dJ-15" value="No" style="edgeStyle=orthogonalEdgeStyle;rounded=0;orthogonalLoop=1;jettySize=auto;html=1;exitX=0.5;exitY=1;exitDx=0;exitDy=0;exitPerimeter=0;entryX=0.5;entryY=0;entryDx=0;entryDy=0;" edge="1" parent="WIyWlLk6GJQsqaUBKTNV-1" source="HyGsmqmq2-tZ3dPpX5dJ-9" target="HyGsmqmq2-tZ3dPpX5dJ-14">
          <mxGeometry relative="1" as="geometry" />
        </mxCell>
        <mxCell id="HyGsmqmq2-tZ3dPpX5dJ-22" value="Yes" style="edgeStyle=orthogonalEdgeStyle;rounded=0;orthogonalLoop=1;jettySize=auto;html=1;exitX=1;exitY=0.5;exitDx=0;exitDy=0;exitPerimeter=0;entryX=0;entryY=0.5;entryDx=0;entryDy=0;entryPerimeter=0;" edge="1" parent="WIyWlLk6GJQsqaUBKTNV-1" source="HyGsmqmq2-tZ3dPpX5dJ-9" target="HyGsmqmq2-tZ3dPpX5dJ-17">
          <mxGeometry x="-0.9427" relative="1" as="geometry">
            <mxPoint as="offset" />
          </mxGeometry>
        </mxCell>
        <mxCell id="HyGsmqmq2-tZ3dPpX5dJ-9" value="Is run_flag = True?" style="strokeWidth=2;html=1;shape=mxgraph.flowchart.decision;whiteSpace=wrap;" vertex="1" parent="WIyWlLk6GJQsqaUBKTNV-1">
          <mxGeometry x="110" y="830" width="100" height="100" as="geometry" />
        </mxCell>
        <mxCell id="HyGsmqmq2-tZ3dPpX5dJ-16" style="edgeStyle=orthogonalEdgeStyle;rounded=0;orthogonalLoop=1;jettySize=auto;html=1;exitX=0.5;exitY=1;exitDx=0;exitDy=0;entryX=0.5;entryY=0;entryDx=0;entryDy=0;entryPerimeter=0;" edge="1" parent="WIyWlLk6GJQsqaUBKTNV-1" source="HyGsmqmq2-tZ3dPpX5dJ-14" target="HyGsmqmq2-tZ3dPpX5dJ-0">
          <mxGeometry relative="1" as="geometry">
            <Array as="points">
              <mxPoint x="160" y="1100" />
              <mxPoint x="70" y="1100" />
              <mxPoint x="70" y="20" />
              <mxPoint x="160" y="20" />
            </Array>
          </mxGeometry>
        </mxCell>
        <mxCell id="HyGsmqmq2-tZ3dPpX5dJ-14" value="&lt;span&gt;Shut off motors&lt;/span&gt;&lt;br&gt;&lt;span&gt;Set turn_flag = False&lt;/span&gt;&lt;br&gt;&lt;span&gt;set stuck_flag = False&lt;/span&gt;&lt;br&gt;&lt;span&gt;reset all stuck counters&lt;/span&gt;" style="rounded=1;whiteSpace=wrap;html=1;absoluteArcSize=1;arcSize=14;strokeWidth=2;" vertex="1" parent="WIyWlLk6GJQsqaUBKTNV-1">
          <mxGeometry x="100" y="975.5" width="120" height="100" as="geometry" />
        </mxCell>
        <mxCell id="HyGsmqmq2-tZ3dPpX5dJ-19" value="Yes" style="edgeStyle=orthogonalEdgeStyle;rounded=0;orthogonalLoop=1;jettySize=auto;html=1;exitX=0.5;exitY=1;exitDx=0;exitDy=0;exitPerimeter=0;entryX=0.5;entryY=0;entryDx=0;entryDy=0;" edge="1" parent="WIyWlLk6GJQsqaUBKTNV-1" source="HyGsmqmq2-tZ3dPpX5dJ-17" target="HyGsmqmq2-tZ3dPpX5dJ-18">
          <mxGeometry relative="1" as="geometry" />
        </mxCell>
        <mxCell id="HyGsmqmq2-tZ3dPpX5dJ-23" value="No" style="edgeStyle=orthogonalEdgeStyle;rounded=0;orthogonalLoop=1;jettySize=auto;html=1;exitX=1;exitY=0.5;exitDx=0;exitDy=0;exitPerimeter=0;entryX=0;entryY=0.5;entryDx=0;entryDy=0;entryPerimeter=0;" edge="1" parent="WIyWlLk6GJQsqaUBKTNV-1" source="HyGsmqmq2-tZ3dPpX5dJ-17" target="HyGsmqmq2-tZ3dPpX5dJ-20">
          <mxGeometry relative="1" as="geometry" />
        </mxCell>
        <mxCell id="HyGsmqmq2-tZ3dPpX5dJ-17" value="Is stuck_flag True?" style="strokeWidth=2;html=1;shape=mxgraph.flowchart.decision;whiteSpace=wrap;" vertex="1" parent="WIyWlLk6GJQsqaUBKTNV-1">
          <mxGeometry x="370" y="40" width="100" height="100" as="geometry" />
        </mxCell>
        <mxCell id="HyGsmqmq2-tZ3dPpX5dJ-35" style="edgeStyle=orthogonalEdgeStyle;rounded=0;orthogonalLoop=1;jettySize=auto;html=1;entryX=0.5;entryY=0;entryDx=0;entryDy=0;entryPerimeter=0;" edge="1" parent="WIyWlLk6GJQsqaUBKTNV-1" source="HyGsmqmq2-tZ3dPpX5dJ-18" target="HyGsmqmq2-tZ3dPpX5dJ-0">
          <mxGeometry relative="1" as="geometry">
            <Array as="points">
              <mxPoint x="420" y="850" />
              <mxPoint x="1050" y="850" />
              <mxPoint x="1050" y="20" />
              <mxPoint x="160" y="20" />
            </Array>
          </mxGeometry>
        </mxCell>
        <mxCell id="HyGsmqmq2-tZ3dPpX5dJ-18" value="Back up 1 second&lt;br&gt;Turn left 2 seconds&lt;br&gt;Set stuck_flag False&lt;br&gt;Set turn_flag False&lt;br&gt;Start_turn_time = now&lt;br&gt;Reset stuck_counter" style="rounded=1;whiteSpace=wrap;html=1;absoluteArcSize=1;arcSize=14;strokeWidth=2;" vertex="1" parent="WIyWlLk6GJQsqaUBKTNV-1">
          <mxGeometry x="360" y="170" width="120" height="100" as="geometry" />
        </mxCell>
        <mxCell id="HyGsmqmq2-tZ3dPpX5dJ-24" value="Yes" style="edgeStyle=orthogonalEdgeStyle;rounded=0;orthogonalLoop=1;jettySize=auto;html=1;exitX=0.5;exitY=1;exitDx=0;exitDy=0;exitPerimeter=0;entryX=0.5;entryY=0;entryDx=0;entryDy=0;entryPerimeter=0;" edge="1" parent="WIyWlLk6GJQsqaUBKTNV-1" source="HyGsmqmq2-tZ3dPpX5dJ-20" target="HyGsmqmq2-tZ3dPpX5dJ-21">
          <mxGeometry relative="1" as="geometry" />
        </mxCell>
        <mxCell id="HyGsmqmq2-tZ3dPpX5dJ-37" value="No" style="edgeStyle=orthogonalEdgeStyle;rounded=0;orthogonalLoop=1;jettySize=auto;html=1;exitX=1;exitY=0.5;exitDx=0;exitDy=0;exitPerimeter=0;entryX=0;entryY=0.5;entryDx=0;entryDy=0;" edge="1" parent="WIyWlLk6GJQsqaUBKTNV-1" source="HyGsmqmq2-tZ3dPpX5dJ-20" target="HyGsmqmq2-tZ3dPpX5dJ-36">
          <mxGeometry x="-0.0667" relative="1" as="geometry">
            <mxPoint as="offset" />
          </mxGeometry>
        </mxCell>
        <mxCell id="HyGsmqmq2-tZ3dPpX5dJ-20" value="Is turn_flag True?" style="strokeWidth=2;html=1;shape=mxgraph.flowchart.decision;whiteSpace=wrap;" vertex="1" parent="WIyWlLk6GJQsqaUBKTNV-1">
          <mxGeometry x="650" y="40" width="100" height="100" as="geometry" />
        </mxCell>
        <mxCell id="HyGsmqmq2-tZ3dPpX5dJ-26" value="No" style="edgeStyle=orthogonalEdgeStyle;rounded=0;orthogonalLoop=1;jettySize=auto;html=1;exitX=0.5;exitY=1;exitDx=0;exitDy=0;exitPerimeter=0;entryX=0.5;entryY=0;entryDx=0;entryDy=0;entryPerimeter=0;" edge="1" parent="WIyWlLk6GJQsqaUBKTNV-1" source="HyGsmqmq2-tZ3dPpX5dJ-21" target="HyGsmqmq2-tZ3dPpX5dJ-25">
          <mxGeometry relative="1" as="geometry" />
        </mxCell>
        <mxCell id="HyGsmqmq2-tZ3dPpX5dJ-45" value="Yes" style="edgeStyle=orthogonalEdgeStyle;rounded=0;orthogonalLoop=1;jettySize=auto;html=1;" edge="1" parent="WIyWlLk6GJQsqaUBKTNV-1" source="HyGsmqmq2-tZ3dPpX5dJ-21" target="HyGsmqmq2-tZ3dPpX5dJ-44">
          <mxGeometry relative="1" as="geometry" />
        </mxCell>
        <mxCell id="HyGsmqmq2-tZ3dPpX5dJ-21" value="Turning for more than abort_turn_time?" style="strokeWidth=2;html=1;shape=mxgraph.flowchart.decision;whiteSpace=wrap;" vertex="1" parent="WIyWlLk6GJQsqaUBKTNV-1">
          <mxGeometry x="650" y="170" width="100" height="100" as="geometry" />
        </mxCell>
        <mxCell id="HyGsmqmq2-tZ3dPpX5dJ-28" value="No" style="edgeStyle=orthogonalEdgeStyle;rounded=0;orthogonalLoop=1;jettySize=auto;html=1;exitX=0.5;exitY=1;exitDx=0;exitDy=0;exitPerimeter=0;entryX=0.5;entryY=0;entryDx=0;entryDy=0;entryPerimeter=0;" edge="1" parent="WIyWlLk6GJQsqaUBKTNV-1" source="HyGsmqmq2-tZ3dPpX5dJ-25" target="HyGsmqmq2-tZ3dPpX5dJ-27">
          <mxGeometry relative="1" as="geometry" />
        </mxCell>
        <mxCell id="HyGsmqmq2-tZ3dPpX5dJ-32" value="Yes" style="edgeStyle=orthogonalEdgeStyle;rounded=0;orthogonalLoop=1;jettySize=auto;html=1;exitX=1;exitY=0.5;exitDx=0;exitDy=0;exitPerimeter=0;entryX=0.5;entryY=0;entryDx=0;entryDy=0;" edge="1" parent="WIyWlLk6GJQsqaUBKTNV-1" source="HyGsmqmq2-tZ3dPpX5dJ-25" target="HyGsmqmq2-tZ3dPpX5dJ-31">
          <mxGeometry x="-0.8" relative="1" as="geometry">
            <mxPoint as="offset" />
          </mxGeometry>
        </mxCell>
        <mxCell id="HyGsmqmq2-tZ3dPpX5dJ-25" value="tof.range &amp;lt; stop_turn_distance?" style="strokeWidth=2;html=1;shape=mxgraph.flowchart.decision;whiteSpace=wrap;" vertex="1" parent="WIyWlLk6GJQsqaUBKTNV-1">
          <mxGeometry x="650" y="300" width="100" height="100" as="geometry" />
        </mxCell>
        <mxCell id="HyGsmqmq2-tZ3dPpX5dJ-30" value="No" style="edgeStyle=orthogonalEdgeStyle;rounded=0;orthogonalLoop=1;jettySize=auto;html=1;exitX=0.5;exitY=1;exitDx=0;exitDy=0;exitPerimeter=0;entryX=0.5;entryY=0;entryDx=0;entryDy=0;" edge="1" parent="WIyWlLk6GJQsqaUBKTNV-1" source="HyGsmqmq2-tZ3dPpX5dJ-27" target="HyGsmqmq2-tZ3dPpX5dJ-29">
          <mxGeometry relative="1" as="geometry" />
        </mxCell>
        <mxCell id="HyGsmqmq2-tZ3dPpX5dJ-33" value="Yes" style="edgeStyle=orthogonalEdgeStyle;rounded=0;orthogonalLoop=1;jettySize=auto;html=1;exitX=1;exitY=0.5;exitDx=0;exitDy=0;exitPerimeter=0;" edge="1" parent="WIyWlLk6GJQsqaUBKTNV-1" source="HyGsmqmq2-tZ3dPpX5dJ-27">
          <mxGeometry x="-0.7647" relative="1" as="geometry">
            <mxPoint x="840" y="560" as="targetPoint" />
            <mxPoint as="offset" />
          </mxGeometry>
        </mxCell>
        <mxCell id="HyGsmqmq2-tZ3dPpX5dJ-27" value="Turning for less than turn_time?" style="strokeWidth=2;html=1;shape=mxgraph.flowchart.decision;whiteSpace=wrap;" vertex="1" parent="WIyWlLk6GJQsqaUBKTNV-1">
          <mxGeometry x="650" y="430" width="100" height="100" as="geometry" />
        </mxCell>
        <mxCell id="HyGsmqmq2-tZ3dPpX5dJ-41" style="edgeStyle=orthogonalEdgeStyle;rounded=0;orthogonalLoop=1;jettySize=auto;html=1;entryX=0.5;entryY=0;entryDx=0;entryDy=0;entryPerimeter=0;" edge="1" parent="WIyWlLk6GJQsqaUBKTNV-1" source="HyGsmqmq2-tZ3dPpX5dJ-29" target="HyGsmqmq2-tZ3dPpX5dJ-0">
          <mxGeometry relative="1" as="geometry">
            <Array as="points">
              <mxPoint x="700" y="850" />
              <mxPoint x="1050" y="850" />
              <mxPoint x="1050" y="20" />
              <mxPoint x="160" y="20" />
            </Array>
          </mxGeometry>
        </mxCell>
        <mxCell id="HyGsmqmq2-tZ3dPpX5dJ-29" value="Set turn_flag False&lt;br&gt;Start_turn_time = now" style="rounded=1;whiteSpace=wrap;html=1;absoluteArcSize=1;arcSize=14;strokeWidth=2;" vertex="1" parent="WIyWlLk6GJQsqaUBKTNV-1">
          <mxGeometry x="650" y="560" width="100" height="100" as="geometry" />
        </mxCell>
        <mxCell id="HyGsmqmq2-tZ3dPpX5dJ-42" style="edgeStyle=orthogonalEdgeStyle;rounded=0;orthogonalLoop=1;jettySize=auto;html=1;entryX=0.5;entryY=0;entryDx=0;entryDy=0;entryPerimeter=0;" edge="1" parent="WIyWlLk6GJQsqaUBKTNV-1" source="HyGsmqmq2-tZ3dPpX5dJ-31" target="HyGsmqmq2-tZ3dPpX5dJ-0">
          <mxGeometry relative="1" as="geometry">
            <Array as="points">
              <mxPoint x="840" y="850" />
              <mxPoint x="1050" y="850" />
              <mxPoint x="1050" y="20" />
              <mxPoint x="160" y="20" />
            </Array>
          </mxGeometry>
        </mxCell>
        <mxCell id="HyGsmqmq2-tZ3dPpX5dJ-31" value="Turn right" style="rounded=1;whiteSpace=wrap;html=1;absoluteArcSize=1;arcSize=14;strokeWidth=2;" vertex="1" parent="WIyWlLk6GJQsqaUBKTNV-1">
          <mxGeometry x="790" y="560" width="100" height="100" as="geometry" />
        </mxCell>
        <mxCell id="HyGsmqmq2-tZ3dPpX5dJ-39" style="edgeStyle=orthogonalEdgeStyle;rounded=0;orthogonalLoop=1;jettySize=auto;html=1;" edge="1" parent="WIyWlLk6GJQsqaUBKTNV-1" source="HyGsmqmq2-tZ3dPpX5dJ-36" target="HyGsmqmq2-tZ3dPpX5dJ-38">
          <mxGeometry relative="1" as="geometry" />
        </mxCell>
        <mxCell id="HyGsmqmq2-tZ3dPpX5dJ-36" value="Drive forward" style="rounded=1;whiteSpace=wrap;html=1;absoluteArcSize=1;arcSize=14;strokeWidth=2;" vertex="1" parent="WIyWlLk6GJQsqaUBKTNV-1">
          <mxGeometry x="900" y="40" width="100" height="100" as="geometry" />
        </mxCell>
        <mxCell id="HyGsmqmq2-tZ3dPpX5dJ-40" style="edgeStyle=orthogonalEdgeStyle;rounded=0;orthogonalLoop=1;jettySize=auto;html=1;" edge="1" parent="WIyWlLk6GJQsqaUBKTNV-1" source="HyGsmqmq2-tZ3dPpX5dJ-38">
          <mxGeometry relative="1" as="geometry">
            <mxPoint x="160" y="40" as="targetPoint" />
            <Array as="points">
              <mxPoint x="950" y="850" />
              <mxPoint x="1050" y="850" />
              <mxPoint x="1050" y="20" />
              <mxPoint x="160" y="20" />
            </Array>
          </mxGeometry>
        </mxCell>
        <mxCell id="HyGsmqmq2-tZ3dPpX5dJ-38" value="Perform stuck check" style="rounded=1;whiteSpace=wrap;html=1;absoluteArcSize=1;arcSize=14;strokeWidth=2;" vertex="1" parent="WIyWlLk6GJQsqaUBKTNV-1">
          <mxGeometry x="900" y="170" width="100" height="100" as="geometry" />
        </mxCell>
        <mxCell id="HyGsmqmq2-tZ3dPpX5dJ-46" style="edgeStyle=orthogonalEdgeStyle;rounded=0;orthogonalLoop=1;jettySize=auto;html=1;exitX=0.5;exitY=1;exitDx=0;exitDy=0;entryX=0.5;entryY=0;entryDx=0;entryDy=0;entryPerimeter=0;" edge="1" parent="WIyWlLk6GJQsqaUBKTNV-1" source="HyGsmqmq2-tZ3dPpX5dJ-44" target="HyGsmqmq2-tZ3dPpX5dJ-0">
          <mxGeometry relative="1" as="geometry">
            <Array as="points">
              <mxPoint x="560" y="850" />
              <mxPoint x="1050" y="850" />
              <mxPoint x="1050" y="20" />
              <mxPoint x="160" y="20" />
            </Array>
          </mxGeometry>
        </mxCell>
        <mxCell id="HyGsmqmq2-tZ3dPpX5dJ-44" value="set stuck_flag = True&lt;br&gt;set stuck_timer = Now&lt;br&gt;set turn_flag = False&lt;br&gt;" style="rounded=1;whiteSpace=wrap;html=1;absoluteArcSize=1;arcSize=14;strokeWidth=2;" vertex="1" parent="WIyWlLk6GJQsqaUBKTNV-1">
          <mxGeometry x="510" y="170" width="100" height="100" as="geometry" />
        </mxCell>
        <mxCell id="HyGsmqmq2-tZ3dPpX5dJ-51" value="Yes" style="edgeStyle=orthogonalEdgeStyle;rounded=0;orthogonalLoop=1;jettySize=auto;html=1;exitX=0.5;exitY=1;exitDx=0;exitDy=0;exitPerimeter=0;entryX=0.5;entryY=0;entryDx=0;entryDy=0;" edge="1" parent="WIyWlLk6GJQsqaUBKTNV-1" source="HyGsmqmq2-tZ3dPpX5dJ-48" target="HyGsmqmq2-tZ3dPpX5dJ-49">
          <mxGeometry relative="1" as="geometry" />
        </mxCell>
        <mxCell id="HyGsmqmq2-tZ3dPpX5dJ-53" value="No" style="edgeStyle=orthogonalEdgeStyle;rounded=0;orthogonalLoop=1;jettySize=auto;html=1;entryX=0.5;entryY=0;entryDx=0;entryDy=0;entryPerimeter=0;" edge="1" parent="WIyWlLk6GJQsqaUBKTNV-1" source="HyGsmqmq2-tZ3dPpX5dJ-48" target="HyGsmqmq2-tZ3dPpX5dJ-9">
          <mxGeometry x="-0.8125" relative="1" as="geometry">
            <Array as="points">
              <mxPoint x="240" y="620" />
              <mxPoint x="240" y="830" />
            </Array>
            <mxPoint as="offset" />
          </mxGeometry>
        </mxCell>
        <mxCell id="HyGsmqmq2-tZ3dPpX5dJ-48" value="stuck for three stuck checks?" style="strokeWidth=2;html=1;shape=mxgraph.flowchart.decision;whiteSpace=wrap;" vertex="1" parent="WIyWlLk6GJQsqaUBKTNV-1">
          <mxGeometry x="110" y="570" width="100" height="100" as="geometry" />
        </mxCell>
        <mxCell id="HyGsmqmq2-tZ3dPpX5dJ-52" style="edgeStyle=orthogonalEdgeStyle;rounded=0;orthogonalLoop=1;jettySize=auto;html=1;exitX=0.5;exitY=1;exitDx=0;exitDy=0;entryX=0.5;entryY=0;entryDx=0;entryDy=0;entryPerimeter=0;" edge="1" parent="WIyWlLk6GJQsqaUBKTNV-1" source="HyGsmqmq2-tZ3dPpX5dJ-49" target="HyGsmqmq2-tZ3dPpX5dJ-9">
          <mxGeometry relative="1" as="geometry" />
        </mxCell>
        <mxCell id="HyGsmqmq2-tZ3dPpX5dJ-49" value="Set run_flag = false" style="rounded=1;whiteSpace=wrap;html=1;absoluteArcSize=1;arcSize=14;strokeWidth=2;" vertex="1" parent="WIyWlLk6GJQsqaUBKTNV-1">
          <mxGeometry x="110" y="700" width="100" height="100" as="geometry" />
        </mxCell>
      </root>
    </mxGraphModel>
  </diagram>
</mxfile>
